<svg width="663" height="683" viewBox="0 0 663 683" fill="none" xmlns="http://www.w3.org/2000/svg">
<path d="M463.599 117.548L464.766 119.801L464.547 124.389L462.946 131.238L459.986 140.24L455.716 151.254L450.202 164.105L443.531 178.592L435.809 194.485L427.158 211.534L417.713 229.47L407.624 248.011L397.049 266.863L386.156 285.73L375.117 304.314L364.105 322.321L353.294 339.469L342.855 355.486L332.952 370.12L323.742 383.141L315.369 394.341L307.966 403.546L301.65 410.611L296.519 415.422L292.656 417.905L290.121 418.021L288.953 415.767L289.172 411.18L290.774 404.331L293.733 395.329L298.003 384.315L303.517 371.464L310.188 356.977L317.91 341.084L326.562 324.035L336.007 306.099L346.096 287.558L356.67 268.706L367.563 249.839L378.603 231.255L389.614 213.248L400.425 196.1L410.864 180.083L420.767 165.449L429.978 152.428L438.35 141.227L445.753 132.022L452.07 124.958L457.2 120.147L461.063 117.664L463.599 117.548Z" fill="white"/>
<path d="M203.599 567.881L202.431 565.627L202.65 561.04L204.252 554.191L207.211 545.189L211.482 534.175L216.996 521.324L223.666 506.837L231.388 490.944L240.04 473.895L249.485 455.959L259.574 437.418L270.149 418.566L281.041 399.699L292.081 381.115L303.093 363.108L313.903 345.96L324.343 329.943L334.245 315.309L343.456 302.288L351.829 291.087L359.232 281.882L365.548 274.818L370.678 270.007L374.542 267.524L377.077 267.408L378.245 269.662L378.026 274.249L376.424 281.098L373.465 290.1L369.194 301.114L363.68 313.965L357.01 328.452L349.288 344.345L340.636 361.394L331.191 379.33L321.102 397.871L310.527 416.723L299.635 435.59L288.595 454.174L277.583 472.181L266.772 489.329L256.333 505.346L246.431 519.98L237.22 533.001L228.847 544.201L221.444 553.407L215.128 560.471L209.998 565.282L206.134 567.765L203.599 567.881Z" fill="white"/>
<path d="M130 225.167L132.264 223.579L136.512 223.183L142.679 223.985L150.667 225.973L160.349 229.114L171.573 233.36L184.163 238.643L197.919 244.881L212.625 251.974L228.048 259.811L243.946 268.268L260.067 277.212L276.158 286.503L291.965 295.992L307.238 305.531L321.737 314.97L335.232 324.159L347.512 332.953L358.382 341.214L367.672 348.812L375.233 355.626L380.948 361.55L384.726 366.49L386.508 370.367L386.265 373.121L384.001 374.709L379.752 375.104L373.586 374.302L365.598 372.315L355.916 369.173L344.691 364.928L332.102 359.644L318.346 353.407L303.64 346.314L288.217 338.477L272.319 330.02L256.198 321.075L240.107 311.785L224.3 302.296L209.027 292.756L194.528 283.318L181.032 274.129L168.753 265.335L157.882 257.073L148.593 249.476L141.032 242.661L135.317 236.738L131.539 231.798L129.757 227.921L130 225.167Z" fill="white"/>
<path d="M532.702 457.667L530.438 459.254L526.189 459.65L520.023 458.848L512.035 456.86L502.353 453.719L491.128 449.473L478.539 444.19L464.783 437.953L450.077 430.859L434.654 423.022L418.756 414.565L402.635 405.621L386.544 396.331L370.737 386.841L355.464 377.302L340.965 367.863L327.469 358.674L315.19 349.88L304.319 341.619L295.03 334.021L287.469 327.207L281.754 321.283L277.976 316.344L276.194 312.466L276.437 309.712L278.701 308.125L282.949 307.729L289.116 308.531L297.104 310.518L306.786 313.66L318.01 317.905L330.6 323.189L344.356 329.426L359.062 336.519L374.485 344.356L390.383 352.814L406.504 361.758L422.595 371.048L438.402 380.538L453.675 390.077L468.174 399.515L481.669 408.704L493.949 417.499L504.819 425.76L514.109 433.357L521.67 440.172L527.385 446.096L531.163 451.035L532.945 454.912L532.702 457.667Z" fill="white"/>
<path d="M492.208 288.594L491.736 290.247L489.812 292.393L486.466 294.996L481.752 298.016L475.743 301.406L468.535 305.111L460.241 309.074L450.991 313.232L440.932 317.519L430.223 321.868L419.032 326.21L407.535 330.476L395.915 334.601L384.354 338.517L373.034 342.164L362.135 345.484L351.828 348.425L342.275 350.941L333.627 352.991L326.021 354.543L319.577 355.573L314.396 356.065L310.56 356.01L308.129 355.411L307.142 354.275L307.614 352.622L309.538 350.477L312.884 347.873L317.598 344.853L323.607 341.464L330.815 337.758L339.11 333.795L348.359 329.638L358.418 325.35L369.127 321.002L380.318 316.66L391.815 312.393L403.435 308.269L414.996 304.352L426.316 300.705L437.215 297.385L447.523 294.444L457.075 291.929L465.723 289.879L473.329 288.326L479.773 287.296L484.954 286.804L488.79 286.859L491.221 287.458L492.208 288.594Z" fill="white"/>
<path d="M304.738 186.382L306.214 186.669L307.949 188.475L309.914 191.77L312.079 196.503L314.409 202.599L316.868 209.962L319.416 218.476L322.014 228.006L324.621 238.403L327.195 249.502L329.697 261.129L332.085 273.099L334.324 285.225L336.377 297.314L338.212 309.177L339.801 320.626L341.117 331.481L342.141 341.57L342.857 350.735L343.252 358.83L343.321 365.729L343.062 371.321L342.481 375.52L341.585 378.259L340.389 379.495L338.912 379.208L337.177 377.403L335.212 374.108L333.048 369.375L330.718 363.279L328.259 355.916L325.71 347.402L323.112 337.871L320.506 327.474L317.931 316.375L315.43 304.749L313.041 292.778L310.803 280.652L308.75 268.563L306.914 256.7L305.326 245.251L304.009 234.396L302.985 224.307L302.27 215.143L301.875 207.047L301.806 200.149L302.064 194.556L302.646 190.357L303.542 187.618L304.738 186.382Z" fill="white"/>
<path d="M183.943 395.604L184.415 393.951L186.34 391.806L189.685 389.202L194.399 386.182L200.408 382.793L207.617 379.087L215.911 375.124L225.16 370.967L235.219 366.68L245.929 362.331L257.12 357.989L268.616 353.722L280.237 349.598L291.798 345.681L303.117 342.034L314.017 338.714L324.324 335.773L333.877 333.258L342.524 331.208L350.13 329.655L356.574 328.625L361.755 328.134L365.592 328.188L368.022 328.788L369.01 329.923L368.537 331.576L366.613 333.722L363.268 336.325L358.553 339.345L352.545 342.735L345.336 346.44L337.042 350.403L327.792 354.561L317.734 358.848L307.024 363.197L295.833 367.539L284.337 371.805L272.716 375.93L261.155 379.846L249.836 383.493L238.936 386.813L228.629 389.754L219.076 392.27L210.429 394.32L202.823 395.872L196.379 396.902L191.197 397.394L187.361 397.339L184.93 396.74L183.943 395.604Z" fill="white"/>
<path d="M362.083 498.551L360.606 498.264L358.872 496.459L356.907 493.163L354.742 488.431L352.412 482.335L349.953 474.972L347.405 466.458L344.807 456.927L342.2 446.53L339.626 435.431L337.124 423.805L334.736 411.834L332.497 399.708L330.444 387.619L328.609 375.756L327.02 364.307L325.704 353.452L324.68 343.363L323.964 334.198L323.569 326.103L323.5 319.205L323.759 313.612L324.34 309.413L325.236 306.674L326.432 305.438L327.909 305.725L329.643 307.531L331.609 310.826L333.773 315.559L336.103 321.655L338.562 329.018L341.11 337.532L343.709 347.062L346.315 357.459L348.89 368.558L351.391 380.185L353.78 392.155L356.018 404.281L358.071 416.37L359.906 428.233L361.495 439.682L362.812 450.537L363.836 460.626L364.551 469.791L364.946 477.886L365.015 484.785L364.757 490.377L364.175 494.576L363.279 497.315L362.083 498.551Z" fill="white"/>
</svg>
